<?xml version="1.0" encoding="utf-8"?>
<!-- Generator: Adobe Illustrator 23.0.6, SVG Export Plug-In . SVG Version: 6.00 Build 0)  -->
<svg version="1.1" id="Layer_1" xmlns="http://www.w3.org/2000/svg" xmlns:xlink="http://www.w3.org/1999/xlink" x="0px" y="0px"
	 viewBox="0 0 1000 250" style="enable-background:new 0 0 1000 250;" xml:space="preserve">
<style type="text/css">
	.st0{fill:url(#SVGID_1_);}
	.st1{fill:url(#SVGID_2_);}
	.st2{fill:url(#SVGID_3_);}
	.st3{fill:url(#SVGID_4_);}
	.st4{fill:url(#SVGID_5_);}
	.st5{fill:url(#SVGID_6_);}
	.st6{fill:url(#SVGID_7_);}
	.st7{fill:url(#SVGID_8_);}
	.st8{fill:url(#SVGID_9_);}
	.st9{fill:url(#SVGID_10_);}
	.st10{fill:url(#SVGID_11_);}
	.st11{fill:url(#SVGID_12_);}
</style>
<g>
	<g>
		<linearGradient id="SVGID_1_" gradientUnits="userSpaceOnUse" x1="35.3774" y1="125" x2="964.6226" y2="125">
			<stop  offset="0" style="stop-color:#049FD9"/>
			<stop  offset="0.5251" style="stop-color:#049FD9"/>
			<stop  offset="0.7421" style="stop-color:#7EBF53"/>
			<stop  offset="1" style="stop-color:#57A027"/>
		</linearGradient>
		<path class="st0" d="M88.34,73.7c17.4,0,32.1,7.8,41.7,21.45L115.63,107c-7.05-9.75-16.2-14.55-27.6-14.55
			c-18.9,0-31.8,13.65-31.8,32.55c0,19.2,13.35,33.15,33,33.15c11.4,0,20.55-4.65,26.1-12.3v-8.1h-27.3V120.2h47.55v29.25
			c-4.5,7.95-10.95,14.55-19.35,19.5c-8.25,4.95-17.55,7.35-27.9,7.35c-29.1,0.6-53.4-22.95-52.95-51.3
			C34.79,96.5,59.09,73.25,88.34,73.7z"/>
		<linearGradient id="SVGID_2_" gradientUnits="userSpaceOnUse" x1="35.3774" y1="125" x2="964.6226" y2="125">
			<stop  offset="0" style="stop-color:#049FD9"/>
			<stop  offset="0.5251" style="stop-color:#049FD9"/>
			<stop  offset="0.7421" style="stop-color:#7EBF53"/>
			<stop  offset="1" style="stop-color:#57A027"/>
		</linearGradient>
		<path class="st1" d="M193.63,118.1h-5.4c-12.15,0-19.95,6.6-19.95,19.35v37.05h-20.25v-74.25h18.6v8.85
			c4.95-6.15,12.15-9.75,20.4-9.75c2.55,0,4.65,0.3,6.6,0.9V118.1z"/>
		<linearGradient id="SVGID_3_" gradientUnits="userSpaceOnUse" x1="35.3774" y1="125" x2="964.6226" y2="125">
			<stop  offset="0" style="stop-color:#049FD9"/>
			<stop  offset="0.5251" style="stop-color:#049FD9"/>
			<stop  offset="0.7421" style="stop-color:#7EBF53"/>
			<stop  offset="1" style="stop-color:#57A027"/>
		</linearGradient>
		<path class="st2" d="M217.19,144.2c2.4,9.45,10.05,14.7,20.85,14.7c7.35,0,14.25-2.55,20.7-7.5l8.4,13.8
			c-8.85,7.35-18.75,11.1-29.7,11.1c-22.95,0.45-41.1-17.4-40.65-38.85c-0.45-21.45,17.4-39.3,38.85-38.85
			c20.55,0,34.95,15.15,34.95,34.5c0,3.6-0.45,7.35-1.35,11.1H217.19z M250.93,129.95c-0.15-9.15-7.2-15-16.05-15
			c-8.55,0-15.45,5.85-17.7,15H250.93z"/>
		<linearGradient id="SVGID_4_" gradientUnits="userSpaceOnUse" x1="35.3774" y1="125" x2="964.6226" y2="125">
			<stop  offset="0" style="stop-color:#049FD9"/>
			<stop  offset="0.5251" style="stop-color:#049FD9"/>
			<stop  offset="0.7421" style="stop-color:#7EBF53"/>
			<stop  offset="1" style="stop-color:#57A027"/>
		</linearGradient>
		<path class="st3" d="M344.83,174.5h-18.6v-7.2c-5.4,5.55-13.2,9-22.65,9c-15.75,0-25.65-9.15-25.65-22.2
			c0-13.35,10.8-21.6,28.05-21.6h18.6v-3.3c0-8.25-4.8-13.05-13.8-13.05c-7.65,0-13.05,3.15-19.65,10.2l-10.5-12.45
			c8.55-10.2,19.35-15.3,32.4-15.3c19.35,0,31.8,11.25,31.8,31.8V174.5z M324.58,145.85h-15.9c-6.6,0-10.35,2.55-10.35,7.5
			c0,4.95,4.2,8.1,10.65,8.1c8.85,0,15.6-6.15,15.6-14.7V145.85z"/>
		<linearGradient id="SVGID_5_" gradientUnits="userSpaceOnUse" x1="35.3774" y1="125" x2="964.6226" y2="125">
			<stop  offset="0" style="stop-color:#049FD9"/>
			<stop  offset="0.5251" style="stop-color:#049FD9"/>
			<stop  offset="0.7421" style="stop-color:#7EBF53"/>
			<stop  offset="1" style="stop-color:#57A027"/>
		</linearGradient>
		<path class="st4" d="M408.28,174.5c-4.8,1.2-9.45,1.8-13.95,1.8c-18.75,0-29.7-9.3-29.7-27.9v-31.05h-11.7v-17.1h11.7V81.5h20.25
			v18.75h21v17.1h-21v29.25c0,8.4,4.2,11.55,13.8,11.55c1.2,0,4.35-0.15,9.6-0.6V174.5z"/>
		<linearGradient id="SVGID_6_" gradientUnits="userSpaceOnUse" x1="35.3774" y1="125" x2="964.6226" y2="125">
			<stop  offset="0" style="stop-color:#049FD9"/>
			<stop  offset="0.5251" style="stop-color:#049FD9"/>
			<stop  offset="0.7421" style="stop-color:#7EBF53"/>
			<stop  offset="1" style="stop-color:#57A027"/>
		</linearGradient>
		<path class="st5" d="M458.83,75.5h20.25v99h-20.25V75.5z"/>
		<linearGradient id="SVGID_7_" gradientUnits="userSpaceOnUse" x1="35.3774" y1="125" x2="964.6226" y2="125">
			<stop  offset="0" style="stop-color:#049FD9"/>
			<stop  offset="0.5251" style="stop-color:#049FD9"/>
			<stop  offset="0.7421" style="stop-color:#7EBF53"/>
			<stop  offset="1" style="stop-color:#57A027"/>
		</linearGradient>
		<path class="st6" d="M564.13,174.5h-20.1v-43.35c0-8.55-5.55-14.4-13.8-14.4c-8.25,0-14.1,5.85-14.1,14.4v43.35h-20.25v-74.25
			h18.6V107c5.25-5.25,12.9-8.4,21.75-8.4c17.25,0,27.9,11.85,27.9,29.85V174.5z"/>
		<linearGradient id="SVGID_8_" gradientUnits="userSpaceOnUse" x1="35.3774" y1="125" x2="964.6226" y2="125">
			<stop  offset="0" style="stop-color:#049FD9"/>
			<stop  offset="0.5251" style="stop-color:#049FD9"/>
			<stop  offset="0.7421" style="stop-color:#7EBF53"/>
			<stop  offset="1" style="stop-color:#57A027"/>
		</linearGradient>
		<path class="st7" d="M648.13,174.5h-20.1v-43.35c0-8.55-5.55-14.4-13.8-14.4c-8.25,0-14.1,5.85-14.1,14.4v43.35h-20.25v-74.25
			h18.6V107c5.25-5.25,12.9-8.4,21.75-8.4c17.25,0,27.9,11.85,27.9,29.85V174.5z"/>
		<linearGradient id="SVGID_9_" gradientUnits="userSpaceOnUse" x1="35.3774" y1="125" x2="964.6226" y2="125">
			<stop  offset="0" style="stop-color:#049FD9"/>
			<stop  offset="0.5251" style="stop-color:#049FD9"/>
			<stop  offset="0.7421" style="stop-color:#7EBF53"/>
			<stop  offset="1" style="stop-color:#57A027"/>
		</linearGradient>
		<path class="st8" d="M699.43,98.6c21.75-0.3,40.35,17.55,39.9,38.7c0.45,21.15-18.3,39.3-40.05,38.85
			c-21.75,0.45-40.05-17.7-39.6-38.85C659.23,116.15,677.68,98.15,699.43,98.6z M699.43,117.05c-11.25,0-19.2,8.55-19.2,20.4
			c0,11.55,7.95,20.1,19.2,20.1c10.95,0,19.2-8.55,19.2-20.1C718.63,125.9,710.38,117.05,699.43,117.05z"/>
		<linearGradient id="SVGID_10_" gradientUnits="userSpaceOnUse" x1="35.3774" y1="125" x2="964.6226" y2="125">
			<stop  offset="0" style="stop-color:#049FD9"/>
			<stop  offset="0.5251" style="stop-color:#049FD9"/>
			<stop  offset="0.7421" style="stop-color:#7EBF53"/>
			<stop  offset="1" style="stop-color:#57A027"/>
		</linearGradient>
		<path class="st9" d="M820.33,100.25l-36.75,76.05h-6.75l-36.75-76.05h21.3l18.75,42l18.75-42H820.33z"/>
		<linearGradient id="SVGID_11_" gradientUnits="userSpaceOnUse" x1="35.3774" y1="125" x2="964.6226" y2="125">
			<stop  offset="0" style="stop-color:#049FD9"/>
			<stop  offset="0.5251" style="stop-color:#049FD9"/>
			<stop  offset="0.7421" style="stop-color:#7EBF53"/>
			<stop  offset="1" style="stop-color:#57A027"/>
		</linearGradient>
		<path class="st10" d="M827.68,100.25h20.25v43.2c0,8.55,5.85,14.25,14.1,14.25c7.8,0,13.8-5.7,13.8-14.25v-43.2h20.25v41.55
			c0,20.7-14.7,34.5-34.05,34.5c-19.8,0-34.35-13.8-34.35-34.5V100.25z"/>
		<linearGradient id="SVGID_12_" gradientUnits="userSpaceOnUse" x1="35.3774" y1="125" x2="964.6226" y2="125">
			<stop  offset="0" style="stop-color:#049FD9"/>
			<stop  offset="0.5251" style="stop-color:#049FD9"/>
			<stop  offset="0.7421" style="stop-color:#7EBF53"/>
			<stop  offset="1" style="stop-color:#57A027"/>
		</linearGradient>
		<path class="st11" d="M915.12,149.6c6.45,6.75,13.5,10.05,20.85,10.05c5.4,0,9.45-2.1,9.45-6.15c0-3.15-2.1-4.35-7.65-6.75
			l-7.95-3.3c-13.65-5.55-20.25-11.7-20.25-22.65c0-13.95,11.1-22.2,27.3-22.2c11.1,0,19.95,3.75,26.7,11.1l-10.2,12.45
			c-4.95-4.65-10.5-7.05-16.65-7.05c-4.95,0-7.95,1.8-7.95,5.25c0,2.85,1.95,4.2,7.8,6.6l7.2,3c14.4,5.85,20.85,11.7,20.85,22.65
			c0,7.35-2.7,13.2-8.25,17.4c-5.4,4.2-12.3,6.3-20.7,6.3c-13.05,0-24-5.4-30.75-14.4L915.12,149.6z"/>
	</g>
</g>
</svg>
